<svg xmlns="http://www.w3.org/2000/svg" width="24" height="24" viewBox="0 0 24 24" fill="#ffffff">
    <path d="M12 .297c-6.627 0-12 5.373-12 12 0 5.303 3.438 9.8 8.205 11.388.6.111.82-.261.82-.578 0-.287-.01-1.25-.016-2.253-3.338.724-4.042-1.607-4.042-1.607-.546-1.387-1.333-1.756-1.333-1.756-1.086-.742.083-.726.083-.726 1.204.084 1.836 1.235 1.836 1.235 1.068 1.831 2.8 1.303 3.486.996.108-.774.418-1.303.76-1.603-2.665-.303-5.466-1.333-5.466-5.933 0-1.312.47-2.382 1.235-3.22-.124-.303-.536-1.52.116-3.164 0 0 1.007-.322 3.3 1.228A11.564 11.564 0 0 1 12 4.847c1.02.004 2.043.138 3.008.4 2.293-1.55 3.3-1.228 3.3-1.228.653 1.644.241 2.861.118 3.164.766.838 1.235 1.908 1.235 3.22 0 4.608-2.806 5.63-5.475 5.927.43.37.823 1.1.823 2.222 0 1.605-.014 2.899-.014 3.287 0 .319.215.694.825.578C20.565 22.1 24 17.604 24 12.297c0-6.627-5.373-12-12-12z"/>
</svg>
