<svg xmlns="http://www.w3.org/2000/svg" width="24" height="24" fill="#ffffff" viewBox="0 0 24 24">
    <path d="M7.75 2h8.5A5.76 5.76 0 0 1 22 7.75v8.5A5.76 5.76 0 0 1 16.25 22h-8.5A5.76 5.76 0 0 1 2 16.25v-8.5A5.76 5.76 0 0 1 7.75 2zm0-2A7.75 7.75 0 0 0 0 7.75v8.5A7.75 7.75 0 0 0 7.75 24h8.5A7.75 7.75 0 0 0 24 16.25v-8.5A7.75 7.75 0 0 0 16.25 0h-8.5zM12 6.75A5.26 5.26 0 1 0 17.25 12 5.26 5.26 0 0 0 12 6.75zm0 2A3.25 3.25 0 1 1 8.75 12 3.25 3.25 0 0 1 12 8.75zm5.95-3.9a1.4 1.4 0 1 0 1.4 1.4 1.4 1.4 0 0 0-1.4-1.4z"/>
</svg>
