<svg xmlns="http://www.w3.org/2000/svg" width="24" height="24" viewBox="0 0 24 24" fill="#ffffff">
    <path d="M22.23 0H1.77C.79 0 0 .77 0 1.75v20.5C0 23.23.79 24 1.77 24h20.46c.98 0 1.77-.77 1.77-1.75V1.75C24 .77 23.21 0 22.23 0zM7.06 20.45H3.56V9h3.5v11.45zM5.31 7.5c-1.13 0-2.06-.92-2.06-2.05S4.18 3.4 5.31 3.4c1.13 0 2.06.92 2.06 2.05s-.92 2.05-2.06 2.05zm15.14 12.95h-3.5v-5.6c0-1.34-.02-3.06-1.87-3.06-1.88 0-2.17 1.46-2.17 2.97v5.69h-3.5V9h3.36v1.56h.05c.47-.89 1.61-1.83 3.31-1.83 3.54 0 4.19 2.33 4.19 5.35v6.37z"/>
</svg>
